<svg xmlns="http://www.w3.org/2000/svg" width="1080" height="1350" viewBox="0 0 1080 1350">
<defs>
 <radialGradient id="g"><stop stop-color="#e8b54f" stop-opacity=".95"/><stop offset=".18" stop-color="#a76d20" stop-opacity=".38"/><stop offset=".55" stop-color="#17345a" stop-opacity=".28"/><stop offset="1" stop-color="#03070e" stop-opacity="0"/></radialGradient>
 <linearGradient id="b" x2="0" y2="1"><stop stop-color="#07101f"/><stop offset=".55" stop-color="#0b1729"/><stop offset="1" stop-color="#02050a"/></linearGradient>
 <linearGradient id="gold"><stop stop-color="#6e4212"/><stop offset=".5" stop-color="#ffd77a"/><stop offset="1" stop-color="#7d4c16"/></linearGradient>
 <filter id="blur"><feGaussianBlur stdDeviation="42"/></filter>
</defs>
<rect width="1080" height="1350" fill="url(#b)"/>
<ellipse cx="540" cy="590" rx="500" ry="420" fill="url(#g)"/>
<g opacity=".38" filter="url(#blur)" fill="#345a82"><ellipse cx="180" cy="390" rx="230" ry="150"/><ellipse cx="880" cy="420" rx="260" ry="180"/><ellipse cx="260" cy="790" rx="270" ry="120"/></g>
<g opacity=".75" fill="url(#gold)">
 <path d="M-80 1050 L485 470 L520 500 L40 1110 Z"/><path d="M1160 1060 L615 470 L580 500 L1040 1120 Z"/>
 <path d="M0 1230 L1080 1040 L1080 1070 L0 1280 Z"/>
</g>
<g fill="#f8cf71" opacity=".8">
 <circle cx="150" cy="680" r="3"/><circle cx="220" cy="520" r="2"/><circle cx="330" cy="730" r="4"/><circle cx="770" cy="610" r="3"/><circle cx="900" cy="720" r="2"/><circle cx="830" cy="490" r="4"/><circle cx="610" cy="390" r="2"/><circle cx="470" cy="850" r="3"/>
</g>
<ellipse cx="540" cy="1070" rx="480" ry="95" fill="#d8a847" opacity=".16" filter="url(#blur)"/>
<path d="M80 1110 Q540 1010 1000 1110" fill="none" stroke="#e5b858" stroke-opacity=".45" stroke-width="3"/>
</svg>